{"asset":{"version":"2.0","generator":"THREE.GLTFExporter"},"scenes":[{"nodes":[0],"name":"AuxScene"}],"scene":0,"nodes":[{"mesh":0}],"bufferViews":[{"buffer":0,"byteOffset":0,"byteLength":17352,"target":34962,"byteStride":12},{"buffer":0,"byteOffset":17352,"byteLength":17352,"target":34962,"byteStride":12}],"buffers":[{"byteLength":34704,"uri":"data:application/octet-stream;base64,"}],"accessors":[{"bufferView":0,"componentType":5126,"count":1446,"max":[100.91192626953125,2.5959699153900146,100.61190795898438],"min":[-100.68809509277344,0.19596900045871735,-100.98809051513672],"type":"VEC3"},{"bufferView":1,"componentType":5126,"count":1446,"max":[0.5546904802322388,1,0.908376157283783],"min":[-0.5547075271606445,0.35856232047080994,-0.5669326186180115],"type":"VEC3"}],"materials":[{"pbrMetallicRoughness":{"baseColorFactor":[0.5019607843137255,0.5019607843137255,0.5019607843137255,1],"metallicFactor":0,"roughnessFactor":1}}],"meshes":[{"primitives":[{"mode":4,"attributes":{"POSITION":0,"NORMAL":1},"material":0}]}]}